<svg width="620" height="320" viewBox="0 0 620 320" fill="none" xmlns="http://www.w3.org/2000/svg">
    <rect width="620" height="320" fill="#512DA8"/>
    <path fill-rule="evenodd" clip-rule="evenodd" d="M350 86C353.314 86 356 83.3137 356 80H374V176C374 211.346 345.346 240 310 240C274.654 240 246 211.346 246 176C246 162.745 256.745 152 270 152C283.255 152 294 162.745 294 176C294 184.837 301.163 192 310 192C318.837 192 326 184.837 326 176V80H344C344 83.3137 346.686 86 350 86Z" fill="#7E57C2"/>
    <path fill-rule="evenodd" clip-rule="evenodd" d="M374 80V176C374 211.346 345.346 240 310 240C274.654 240 246 211.346 246 176C246 162.745 256.745 152 270 152C283.255 152 294 162.745 294 176C294 184.837 301.163 192 310 192C318.837 192 326 184.837 326 176V80H374Z" stroke="#212121" stroke-width="4"/>
    <path d="M278 176C278 180.151 274.839 183.563 270.792 183.961C270.532 183.987 270.267 184 270 184C265.582 184 262 180.418 262 176C262 171.582 265.582 168 270 168C274.418 168 278 171.582 278 176Z" fill="white"/>
    <path d="M358 80C358 84.4183 354.418 88 350 88C345.582 88 342 84.4183 342 80C342 75.5817 345.582 72 350 72C354.418 72 358 75.5817 358 80Z" fill="white"/>
    <path d="M350 88V176C350 198.091 332.091 216 310 216C290.635 216 274.483 202.238 270.792 183.961M350 88C354.418 88 358 84.4183 358 80C358 75.5817 354.418 72 350 72C345.582 72 342 75.5817 342 80C342 84.4183 345.582 88 350 88ZM270.792 183.961C274.839 183.563 278 180.151 278 176C278 171.582 274.418 168 270 168C265.582 168 262 171.582 262 176C262 180.418 265.582 184 270 184C270.267 184 270.532 183.987 270.792 183.961Z" stroke="#212121" stroke-width="2"/>
    <path d="M318 216C318 220.418 314.418 224 310 224C305.582 224 302 220.418 302 216C302 211.582 305.582 208 310 208C314.418 208 318 211.582 318 216Z" fill="white"/>
    <path d="M382 208L374 216L382 224L390 216L382 208Z" fill="white"/>
    <path d="M238 208L246 216L238 224L230 216L238 208Z" fill="white"/>
    <path d="M318 216C318 220.418 314.418 224 310 224C305.582 224 302 220.418 302 216M318 216C318 211.582 314.418 208 310 208C305.582 208 302 211.582 302 216M318 216H374M302 216H246M374 216L382 208L390 216L382 224L374 216ZM246 216L238 208L230 216L238 224L246 216Z" stroke="#212121" stroke-width="2"/>
</svg>
