<svg width="118" height="49" viewBox="0 0 118 49" fill="none" xmlns="http://www.w3.org/2000/svg">
    <g clip-path="url(#clip0_2708_79089)">
        <rect width="48" height="48" transform="translate(0 0.5)" fill="transparent"/>
        <path fill-rule="evenodd" clip-rule="evenodd"
              d="M21 4.5V28.5C21 30.1569 22.3431 31.5 24 31.5C25.6569 31.5 27 30.1569 27 28.5V4.5H41V28.5C41 37.8888 33.3888 45.5 24 45.5C14.6112 45.5 7 37.8888 7 28.5V4.5H21Z"
              fill="#9575CD"/>
        <path d="M36 4.5C36 5.60457 35.1046 6.5 34 6.5C32.8954 6.5 32 5.60457 32 4.5C32 3.39543 32.8954 2.5 34 2.5C35.1046 2.5 36 3.39543 36 4.5Z"
              fill="white"/>
        <path d="M16 4.5C16 5.60457 15.1046 6.5 14 6.5C12.8954 6.5 12 5.60457 12 4.5C12 3.39543 12.8954 2.5 14 2.5C15.1046 2.5 16 3.39543 16 4.5Z"
              fill="white"/>
        <path d="M34 6.5V28.5C34 34.0228 29.5228 38.5 24 38.5C18.4771 38.5 14 34.0228 14 28.5V6.5M34 6.5C35.1046 6.5 36 5.60457 36 4.5C36 3.39543 35.1046 2.5 34 2.5C32.8954 2.5 32 3.39543 32 4.5C32 5.60457 32.8954 6.5 34 6.5ZM14 6.5C15.1046 6.5 16 5.60457 16 4.5C16 3.39543 15.1046 2.5 14 2.5C12.8954 2.5 12 3.39543 12 4.5C12 5.60457 12.8954 6.5 14 6.5Z"
              stroke="#212121"/>
        <path d="M26 38.5C26 39.6046 25.1046 40.5 24 40.5C22.8954 40.5 22 39.6046 22 38.5C22 37.3954 22.8954 36.5 24 36.5C25.1046 36.5 26 37.3954 26 38.5Z"
              fill="white"/>
        <path d="M42 36.5L40 38.5L42 40.5L44 38.5L42 36.5Z" fill="white"/>
        <path d="M6 36.5L8 38.5L6 40.5L4 38.5L6 36.5Z" fill="white"/>
        <path d="M26 38.5C26 39.6046 25.1046 40.5 24 40.5C22.8954 40.5 22 39.6046 22 38.5M26 38.5C26 37.3954 25.1046 36.5 24 36.5C22.8954 36.5 22 37.3954 22 38.5M26 38.5H40M22 38.5H8M40 38.5L42 36.5L44 38.5L42 40.5L40 38.5ZM8 38.5L6 36.5L4 38.5L6 40.5L8 38.5Z"
              stroke="#212121"/>
        <path d="M66.376 32.5C66.2 32.5 66.056 32.444 65.944 32.332C65.832 32.22 65.776 32.076 65.776 31.9V16.3C65.776 16.124 65.832 15.98 65.944 15.868C66.056 15.756 66.2 15.7 66.376 15.7H77.248C77.424 15.7 77.568 15.756 77.68 15.868C77.792 15.98 77.848 16.124 77.848 16.3V18.22C77.848 18.38 77.792 18.516 77.68 18.628C77.568 18.74 77.424 18.796 77.248 18.796H69.472V22.564H76.72C76.896 22.564 77.04 22.62 77.152 22.732C77.264 22.844 77.32 22.988 77.32 23.164V24.94C77.32 25.1 77.264 25.236 77.152 25.348C77.04 25.46 76.896 25.516 76.72 25.516H69.472V29.404H77.44C77.616 29.404 77.76 29.46 77.872 29.572C77.984 29.684 78.04 29.828 78.04 30.004V31.9C78.04 32.076 77.984 32.22 77.872 32.332C77.76 32.444 77.616 32.5 77.44 32.5H66.376ZM81.4932 32.5C81.3172 32.5 81.1732 32.444 81.0612 32.332C80.9492 32.22 80.8932 32.076 80.8932 31.9V16.3C80.8932 16.124 80.9492 15.98 81.0612 15.868C81.1732 15.756 81.3172 15.7 81.4932 15.7H84.1572C84.3332 15.7 84.4772 15.756 84.5892 15.868C84.7012 15.98 84.7572 16.124 84.7572 16.3V29.284H92.1972C92.3732 29.284 92.5172 29.34 92.6292 29.452C92.7412 29.564 92.7972 29.708 92.7972 29.884V31.9C92.7972 32.076 92.7412 32.22 92.6292 32.332C92.5172 32.444 92.3732 32.5 92.1972 32.5H81.4932ZM101.538 32.74C100.13 32.74 98.8984 32.508 97.8424 32.044C96.7864 31.564 95.9704 30.836 95.3944 29.86C94.8184 28.868 94.5304 27.612 94.5304 26.092V16.3C94.5304 16.124 94.5864 15.98 94.6984 15.868C94.8104 15.756 94.9544 15.7 95.1304 15.7H97.7464C97.9224 15.7 98.0664 15.756 98.1784 15.868C98.2904 15.98 98.3464 16.124 98.3464 16.3V26.068C98.3464 27.252 98.6264 28.132 99.1864 28.708C99.7464 29.284 100.53 29.572 101.538 29.572C102.53 29.572 103.306 29.284 103.866 28.708C104.426 28.132 104.706 27.252 104.706 26.068V16.3C104.706 16.124 104.762 15.98 104.874 15.868C105.002 15.756 105.146 15.7 105.306 15.7H107.946C108.106 15.7 108.242 15.756 108.354 15.868C108.466 15.98 108.522 16.124 108.522 16.3V26.092C108.522 27.612 108.234 28.868 107.658 29.86C107.082 30.836 106.274 31.564 105.234 32.044C104.194 32.508 102.962 32.74 101.538 32.74ZM112.524 32.5C112.348 32.5 112.204 32.444 112.092 32.332C111.98 32.22 111.924 32.076 111.924 31.9V16.3C111.924 16.124 111.98 15.98 112.092 15.868C112.204 15.756 112.348 15.7 112.524 15.7H115.236C115.412 15.7 115.556 15.756 115.668 15.868C115.78 15.98 115.836 16.124 115.836 16.3V31.9C115.836 32.076 115.78 32.22 115.668 32.332C115.556 32.444 115.412 32.5 115.236 32.5H112.524Z"
              fill="#212121"/>
    </g>
    <defs>
        <clipPath id="clip0_2708_79089">
            <rect width="118" height="48" fill="white" transform="translate(0 0.5)"/>
        </clipPath>
    </defs>
</svg>

