<svg width="126" height="49" viewBox="0 0 126 49" fill="none" xmlns="http://www.w3.org/2000/svg">
    <rect width="48" height="48" transform="translate(0 0.5)" />
    <path fill-rule="evenodd" clip-rule="evenodd" d="M34 6C34.8284 6 35.5 5.32843 35.5 4.5H41V28.5C41 37.8888 33.3888 45.5 24 45.5C14.6112 45.5 7 37.8888 7 28.5C7 24.634 10.134 21.5 14 21.5C17.866 21.5 21 24.634 21 28.5C21 30.1569 22.3431 31.5 24 31.5C25.6569 31.5 27 30.1569 27 28.5V4.5H32.5C32.5 5.32843 33.1716 6 34 6Z" fill="#9575CD"/>
    <path d="M16 28.5C16 29.5377 15.2097 30.3909 14.1981 30.4903C14.1329 30.4967 14.0668 30.5 14 30.5C12.8954 30.5 12 29.6046 12 28.5C12 27.3954 12.8954 26.5 14 26.5C15.1046 26.5 16 27.3954 16 28.5Z" fill="white"/>
    <path d="M36 4.5C36 5.60457 35.1046 6.5 34 6.5C32.8954 6.5 32 5.60457 32 4.5C32 3.39543 32.8954 2.5 34 2.5C35.1046 2.5 36 3.39543 36 4.5Z" fill="white"/>
    <path d="M34 6.5V28.5C34 34.0228 29.5228 38.5 24 38.5C19.1587 38.5 15.1209 35.0596 14.1981 30.4903M34 6.5C35.1046 6.5 36 5.60457 36 4.5C36 3.39543 35.1046 2.5 34 2.5C32.8954 2.5 32 3.39543 32 4.5C32 5.60457 32.8954 6.5 34 6.5ZM14.1981 30.4903C15.2097 30.3909 16 29.5377 16 28.5C16 27.3954 15.1046 26.5 14 26.5C12.8954 26.5 12 27.3954 12 28.5C12 29.6046 12.8954 30.5 14 30.5C14.0668 30.5 14.1329 30.4967 14.1981 30.4903Z" stroke="#212121"/>
    <path d="M26 38.5C26 39.6046 25.1046 40.5 24 40.5C22.8954 40.5 22 39.6046 22 38.5C22 37.3954 22.8954 36.5 24 36.5C25.1046 36.5 26 37.3954 26 38.5Z" fill="white"/>
    <path d="M42 36.5L40 38.5L42 40.5L44 38.5L42 36.5Z" fill="white"/>
    <path d="M6 36.5L8 38.5L6 40.5L4 38.5L6 36.5Z" fill="white"/>
    <path d="M26 38.5C26 39.6046 25.1046 40.5 24 40.5C22.8954 40.5 22 39.6046 22 38.5M26 38.5C26 37.3954 25.1046 36.5 24 36.5C22.8954 36.5 22 37.3954 22 38.5M26 38.5H40M22 38.5H8M40 38.5L42 36.5L44 38.5L42 40.5L40 38.5ZM8 38.5L6 36.5L4 38.5L6 40.5L8 38.5Z" stroke="#212121"/>
    <path d="M70.336 32.884C68.976 32.884 67.784 32.516 66.76 31.78C65.752 31.028 65.048 30.012 64.648 28.732L67.624 27.508C67.832 28.26 68.168 28.836 68.632 29.236C69.096 29.62 69.664 29.812 70.336 29.812C71.072 29.812 71.648 29.572 72.064 29.092C72.496 28.612 72.712 27.94 72.712 27.076V15.316H75.952V27.052C75.952 28.3 75.704 29.364 75.208 30.244C74.712 31.108 74.04 31.764 73.192 32.212C72.344 32.66 71.392 32.884 70.336 32.884ZM80.9526 18.916C80.3926 18.916 79.9126 18.716 79.5126 18.316C79.1126 17.916 78.9126 17.436 78.9126 16.876C78.9126 16.316 79.1126 15.844 79.5126 15.46C79.9126 15.06 80.3926 14.86 80.9526 14.86C81.5126 14.86 81.9846 15.06 82.3686 15.46C82.7686 15.844 82.9686 16.316 82.9686 16.876C82.9686 17.436 82.7686 17.916 82.3686 18.316C81.9846 18.716 81.5126 18.916 80.9526 18.916ZM79.3686 20.26H82.5126V32.5H79.3686V20.26ZM91.4523 32.884C90.2203 32.884 89.1163 32.612 88.1403 32.068C87.1643 31.508 86.3963 30.732 85.8363 29.74C85.2923 28.748 85.0203 27.628 85.0203 26.38C85.0203 25.132 85.2923 24.02 85.8363 23.044C86.3963 22.052 87.1643 21.276 88.1403 20.716C89.1163 20.156 90.2203 19.876 91.4523 19.876C92.8123 19.876 93.9803 20.172 94.9563 20.764C95.9323 21.34 96.6363 22.164 97.0683 23.236L94.1883 24.436C93.6763 23.348 92.7643 22.804 91.4523 22.804C90.4923 22.804 89.7003 23.132 89.0763 23.788C88.4683 24.444 88.1643 25.308 88.1643 26.38C88.1643 27.468 88.4683 28.34 89.0763 28.996C89.7003 29.652 90.4923 29.98 91.4523 29.98C92.7803 29.98 93.7403 29.404 94.3323 28.252L97.1883 29.5C96.6603 30.572 95.9083 31.404 94.9323 31.996C93.9563 32.588 92.7963 32.884 91.4523 32.884ZM105.189 32.884C103.925 32.884 102.797 32.604 101.805 32.044C100.813 31.468 100.037 30.692 99.4769 29.716C98.9329 28.724 98.6609 27.612 98.6609 26.38C98.6609 25.164 98.9329 24.06 99.4769 23.068C100.037 22.076 100.813 21.3 101.805 20.74C102.797 20.164 103.925 19.876 105.189 19.876C106.437 19.876 107.557 20.164 108.549 20.74C109.541 21.3 110.309 22.076 110.853 23.068C111.413 24.06 111.693 25.164 111.693 26.38C111.693 27.612 111.413 28.724 110.853 29.716C110.309 30.692 109.541 31.468 108.549 32.044C107.557 32.604 106.437 32.884 105.189 32.884ZM105.189 29.98C105.797 29.98 106.357 29.836 106.869 29.548C107.381 29.26 107.789 28.844 108.093 28.3C108.397 27.756 108.549 27.116 108.549 26.38C108.549 25.66 108.397 25.028 108.093 24.484C107.789 23.94 107.381 23.524 106.869 23.236C106.357 22.948 105.797 22.804 105.189 22.804C104.581 22.804 104.021 22.948 103.509 23.236C102.997 23.524 102.581 23.94 102.261 24.484C101.957 25.028 101.805 25.66 101.805 26.38C101.805 27.1 101.957 27.74 102.261 28.3C102.581 28.844 102.997 29.26 103.509 29.548C104.021 29.836 104.581 29.98 105.189 29.98ZM113.864 20.26H116.816V21.796H117.008C117.376 21.204 117.896 20.74 118.568 20.404C119.24 20.052 119.968 19.876 120.752 19.876C122.224 19.876 123.344 20.324 124.112 21.22C124.88 22.116 125.264 23.34 125.264 24.892V32.5H122.12V25.276C122.12 24.492 121.92 23.884 121.52 23.452C121.12 23.02 120.56 22.804 119.84 22.804C118.992 22.804 118.304 23.132 117.776 23.788C117.264 24.444 117.008 25.268 117.008 26.26V32.5H113.864V20.26Z" fill="black"/>
</svg>
